<?xml version="1.0" standalone="no"?>
<!DOCTYPE svg PUBLIC "-//W3C//DTD SVG 20010904//EN"
 "http://www.w3.org/TR/2001/REC-SVG-20010904/DTD/svg10.dtd">
<svg version="1.0" xmlns="http://www.w3.org/2000/svg"
 width="714.000000pt" height="178.000000pt" viewBox="0 0 714.000000 178.000000"
 preserveAspectRatio="xMidYMid meet">

<g transform="translate(0.000000,178.000000) scale(0.100000,-0.100000)"
fill="#000000" stroke="none">
<path d="M518 1542 c-90 -33 -110 -72 -111 -221 0 -99 12 -178 41 -266 9 -27
15 -58 13 -67 -3 -23 50 -125 97 -184 21 -27 64 -67 95 -88 32 -22 57 -44 57
-49 0 -5 14 -22 31 -38 22 -21 34 -44 40 -77 5 -26 27 -84 49 -130 48 -96 118
-172 200 -217 48 -26 65 -30 135 -30 90 0 143 20 216 83 48 41 112 133 137
198 15 38 27 51 63 68 61 29 87 81 70 138 -25 81 -97 117 -170 83 -85 -38 -97
-149 -24 -211 l25 -21 -28 -59 c-18 -37 -55 -86 -99 -130 -75 -75 -114 -94
-197 -94 -123 0 -269 147 -313 315 l-15 59 30 27 c17 16 30 32 30 37 0 6 19
21 43 35 23 14 59 41 79 61 49 47 122 171 124 210 1 17 14 76 29 131 21 78 27
123 27 207 0 158 -18 197 -112 231 -80 29 -170 17 -170 -23 0 -35 13 -40 94
-40 108 0 118 -8 127 -96 14 -134 -22 -321 -75 -386 -15 -18 -46 -62 -69 -98
-83 -125 -187 -164 -274 -101 -48 35 -103 100 -132 158 -11 23 -32 52 -45 65
-46 45 -81 215 -69 345 9 106 16 113 123 113 79 0 91 2 100 20 8 15 6 24 -10
40 -25 25 -94 26 -162 2z m1067 -847 c56 -55 13 -154 -62 -142 -51 9 -73 33
-73 79 0 49 35 88 80 88 19 0 40 -9 55 -25z"/>
<path d="M1496 659 c-24 -34 -3 -69 42 -69 14 0 26 9 33 24 24 53 -41 92 -75
45z"/>
<path d="M1459 1266 c-96 -34 -154 -114 -154 -211 1 -178 176 -286 333 -206
48 25 76 55 101 111 80 177 -98 371 -280 306z m109 -148 c3 -36 5 -38 38 -38
31 0 34 -2 34 -30 0 -28 -3 -30 -35 -30 -34 0 -35 -1 -35 -40 0 -39 -1 -40
-35 -40 -34 0 -35 1 -35 40 l0 40 -40 0 c-38 0 -40 2 -40 30 0 28 2 30 40 30
l40 0 0 41 c0 39 1 40 33 37 29 -3 32 -6 35 -40z"/>
<path d="M2586 1234 c-33 -32 -9 -94 35 -94 39 0 59 19 59 55 0 24 -6 38 -19
45 -28 14 -57 12 -75 -6z"/>
<path d="M2921 1238 c-51 -9 -84 -36 -114 -93 -21 -38 -22 -55 -25 -362 l-3
-323 35 0 36 0 0 225 0 224 68 3 c65 3 67 4 70 30 3 27 3 27 -65 30 -79 3 -81
7 -63 95 9 39 21 66 42 86 26 27 34 29 74 23 40 -5 46 -3 53 17 5 12 6 25 2
30 -15 16 -68 23 -110 15z"/>
<path d="M5550 850 l0 -390 35 0 35 0 0 123 c0 122 0 124 28 150 15 15 30 27
33 27 3 0 54 -67 114 -150 l110 -150 48 0 c36 0 46 3 41 12 -4 7 -58 83 -121
169 -62 86 -113 161 -113 166 0 5 50 53 110 108 61 54 110 100 110 102 0 1
-22 3 -49 3 -47 0 -51 -2 -174 -110 -69 -60 -128 -110 -131 -110 -3 0 -6 99
-6 220 l0 220 -35 0 -35 0 0 -390z"/>
<path d="M2120 840 l0 -380 185 0 185 0 0 35 0 35 -145 0 -145 0 0 345 0 345
-40 0 -40 0 0 -380z"/>
<path d="M3340 1034 c-138 -38 -228 -185 -201 -330 28 -149 139 -244 286 -244
99 0 195 48 240 120 15 23 25 43 23 45 -2 1 -14 8 -27 15 -22 12 -27 9 -60
-30 -66 -81 -179 -111 -266 -71 -69 31 -108 87 -129 184 l-6 27 255 0 255 0 0
23 c0 56 -32 130 -78 180 -77 83 -181 112 -292 81z m180 -76 c49 -25 95 -78
105 -120 l7 -28 -211 0 -211 0 11 27 c47 125 183 180 299 121z"/>
<path d="M5042 1040 c-130 -27 -233 -177 -219 -317 16 -156 152 -273 302 -260
90 9 147 38 188 97 17 24 17 24 17 -38 l0 -62 40 0 40 0 0 143 c0 79 -5 170
-11 203 -30 166 -188 269 -357 234z m165 -84 c72 -34 104 -84 111 -174 5 -78
-8 -119 -58 -176 -71 -81 -180 -101 -258 -48 -129 86 -146 259 -35 364 64 61
153 74 240 34z"/>
<path d="M6283 1040 c-61 -13 -95 -33 -145 -89 -107 -119 -102 -298 12 -411
61 -62 126 -84 224 -78 84 6 137 30 188 86 59 65 63 78 27 92 -16 7 -31 11
-33 9 -1 -2 -13 -19 -25 -36 -12 -18 -43 -45 -69 -60 -39 -23 -58 -28 -117
-28 -61 0 -76 4 -113 29 -50 34 -88 94 -98 154 l-7 42 257 0 256 0 -6 43 c-11
72 -44 135 -94 180 -66 60 -166 86 -257 67z m172 -86 c40 -21 88 -79 100 -121
l6 -23 -211 0 -211 0 6 23 c13 44 61 101 105 125 56 29 144 28 205 -4z"/>
<path d="M4038 1030 c-48 -9 -102 -45 -135 -93 -42 -60 -53 -124 -53 -309 l0
-168 35 0 35 0 0 183 c0 204 9 239 69 290 57 48 124 48 181 1 59 -50 64 -70
68 -281 l4 -193 33 0 33 0 4 188 c4 205 9 226 67 275 67 56 148 59 199 7 39
-38 42 -60 42 -281 l0 -189 36 0 36 0 -4 218 c-3 210 -4 218 -28 261 -68 122
-266 124 -356 4 l-32 -42 -12 30 c-13 31 -73 89 -93 89 -7 1 -30 4 -52 8 -22
4 -57 5 -77 2z"/>
<path d="M6927 1025 c-59 -20 -101 -59 -138 -127 l-34 -63 -3 -187 -4 -188 35
0 35 0 4 178 c4 198 10 222 72 285 28 28 45 37 69 37 26 0 37 6 50 30 10 17
17 30 15 30 -2 0 -17 4 -34 9 -20 6 -43 4 -67 -4z"/>
<path d="M2590 740 l0 -280 35 0 35 0 0 280 0 280 -35 0 -35 0 0 -280z"/>
</g>
</svg>
